<?xml version="1.0" standalone="no"?>
<!DOCTYPE svg PUBLIC "-//W3C//DTD SVG 20010904//EN"
 "http://www.w3.org/TR/2001/REC-SVG-20010904/DTD/svg10.dtd">
<svg version="1.0" xmlns="http://www.w3.org/2000/svg"
 width="951.000000pt" height="951.000000pt" viewBox="0 0 951.000000 951.000000"
 preserveAspectRatio="xMidYMid meet">
<metadata>
Created by potrace 1.11, written by Peter Selinger 2001-2013
</metadata>
<g transform="translate(0.000000,951.000000) scale(0.100000,-0.100000)"
fill="#000000" stroke="none">
<path d="M6540 7117 c-48 -24 -57 -122 -13 -154 12 -9 67 -13 187 -14 317 -1
419 2 437 11 42 23 45 112 4 148 -26 22 -30 22 -308 22 -207 0 -289 -4 -307
-13z"/>
<path d="M996 7101 c-9 -10 -13 -20 -10 -24 4 -3 7 -1034 6 -2291 l0 -2285 22
-7 c11 -4 1046 -8 2298 -8 1843 -1 2281 1 2295 12 17 12 18 70 18 1029 0 832
-2 1019 -13 1030 -9 9 -43 13 -108 13 -91 0 -94 -1 -95 -22 0 -13 -1 -152 -1
-311 -1 -279 -2 -287 -20 -270 -10 9 -16 18 -14 20 2 3 -19 28 -48 57 -29 29
-55 57 -57 63 -2 7 -30 40 -63 75 -111 120 -132 143 -166 187 -19 24 -56 66
-82 92 -26 27 -49 58 -53 68 -3 11 -15 23 -26 26 -10 4 -19 10 -19 15 0 13
-54 22 -84 14 l-26 -6 0 -502 c0 -280 4 -507 9 -515 7 -11 34 -15 101 -16 75
-2 92 1 99 14 4 9 7 148 7 309 l-1 293 32 -35 c18 -19 33 -36 33 -38 0 -6 79
-95 133 -149 26 -27 47 -53 47 -59 0 -5 5 -10 10 -10 6 0 10 -4 10 -10 0 -5
27 -36 60 -69 33 -33 60 -64 60 -68 0 -5 8 -16 18 -25 9 -9 22 -23 28 -30 7
-9 10 -168 11 -491 l0 -477 -2102 0 -2102 0 0 2110 c0 1446 3 2108 10 2103 5
-3 80 -5 166 -4 86 1 163 2 171 2 8 0 80 0 160 0 80 0 152 0 160 0 8 0 80 0
160 0 80 0 152 0 160 0 33 0 306 0 315 0 6 0 47 -1 92 -2 46 -2 85 0 88 3 3 3
22 2 43 -3 21 -4 41 -4 48 1 6 6 13 8 16 5 7 -7 126 -10 133 -3 3 3 22 2 43
-3 21 -4 41 -4 48 1 6 6 13 8 16 5 7 -7 126 -10 133 -3 3 3 22 2 43 -3 21 -4
41 -4 48 1 6 6 13 8 16 5 7 -7 126 -10 133 -3 3 3 22 2 43 -3 21 -4 41 -4 48
1 6 6 13 8 16 5 7 -7 126 -10 133 -3 3 3 22 2 43 -3 21 -4 41 -4 48 1 6 6 13
8 16 5 7 -7 126 -10 133 -3 3 3 22 2 43 -3 21 -4 41 -4 48 1 6 6 13 8 16 5 7
-7 126 -10 133 -3 3 3 22 2 43 -3 21 -4 41 -4 48 1 6 6 13 8 16 5 7 -7 126
-10 133 -3 3 3 22 2 43 -3 21 -4 41 -4 48 1 6 6 13 8 16 5 7 -7 126 -10 133
-3 3 3 22 2 43 -3 21 -4 41 -4 48 1 6 6 13 8 16 5 7 -7 126 -10 133 -3 3 3 22
2 43 -3 21 -4 41 -4 48 1 6 6 13 8 16 5 7 -7 126 -10 133 -3 3 3 22 2 43 -3
21 -4 41 -4 48 1 6 6 13 8 16 5 7 -8 126 -10 134 -3 3 4 13 4 21 1 8 -3 24 -6
36 -7 l22 -1 0 -840 0 -840 -437 -3 -438 -2 0 414 c0 321 -3 417 -12 423 -16
10 -178 12 -184 2 -7 -11 -6 -1021 1 -1028 7 -7 1233 -10 1253 -3 38 13 38 24
38 1058 -1 907 -3 1002 -17 1017 -15 14 -212 16 -2307 15 -2159 0 -2292 -1
-2306 -17z"/>
<path d="M6549 6876 c0 -6 0 -110 1 -231 l1 -221 -32 -69 c-17 -39 -59 -135
-94 -215 -35 -80 -109 -251 -165 -380 -186 -427 -181 -414 -183 -511 -2 -67 2
-93 17 -121 17 -32 71 -73 116 -87 8 -3 288 -6 621 -8 665 -3 664 -3 727 57
42 39 56 89 49 174 -5 76 -17 112 -80 256 -53 121 -91 209 -102 235 -7 17 -20
46 -28 65 -8 19 -72 165 -141 323 l-125 288 2 226 2 227 -50 2 -50 1 1 -241
c2 -264 -3 -233 73 -399 17 -37 31 -69 31 -72 0 -2 13 -32 29 -67 102 -221
332 -755 339 -786 20 -91 -2 -150 -66 -178 -32 -14 -106 -16 -597 -15 -308 0
-567 2 -575 4 -33 7 -77 37 -90 62 -26 48 -15 116 41 248 28 67 54 127 59 132
4 6 11 21 15 35 4 14 18 48 31 75 19 42 266 600 309 700 10 22 13 95 14 265
l0 235 -50 1 c-28 0 -49 -4 -50 -10z"/>
<path d="M2233 6074 c-10 -4 -12 -125 -13 -519 0 -592 -13 -532 115 -531 64 1
80 4 81 16 1 8 2 17 3 20 6 14 5 200 -1 200 -4 0 -5 6 -3 13 10 29 13 67 5 67
-6 0 -6 9 -1 23 5 14 5 30 0 40 -6 10 -6 17 -1 17 9 0 6 95 -4 111 -3 5 -1 9
4 9 5 0 8 23 6 50 -2 28 -2 50 1 50 9 0 87 -82 117 -121 15 -20 48 -57 73 -82
25 -25 45 -48 45 -52 0 -3 10 -16 23 -29 12 -13 40 -45 62 -71 22 -25 61 -69
88 -97 26 -27 54 -63 62 -79 9 -16 22 -29 30 -29 7 0 16 -8 19 -18 8 -24 54
-48 91 -47 l30 0 3 514 c1 322 -1 518 -8 525 -13 16 -165 15 -181 -1 -9 -9
-12 -91 -11 -308 1 -162 -2 -295 -6 -295 -10 0 -52 46 -52 56 0 5 -20 28 -44
52 -25 23 -43 42 -41 42 6 0 -57 71 -107 121 -27 27 -48 52 -48 58 0 5 -27 35
-60 67 -33 33 -60 63 -60 68 0 5 -12 21 -27 37 -16 15 -33 34 -40 41 -7 7 -18
18 -25 24 -7 6 -21 22 -30 36 -17 23 -65 34 -95 22z"/>
<path d="M3285 6050 c-13 -14 -15 -84 -15 -507 0 -569 -10 -521 110 -518 41 1
78 3 81 4 18 3 23 51 25 231 1 107 3 201 3 208 1 9 50 12 209 12 114 0 212 -4
218 -8 7 -5 11 -77 11 -220 1 -117 4 -216 7 -220 4 -3 45 -7 92 -7 72 -1 87 1
95 16 15 29 12 1006 -3 1016 -19 11 -178 11 -185 0 -3 -6 -6 -92 -5 -193 0
-131 -3 -183 -11 -186 -10 -3 -374 -2 -417 1 -13 1 -15 27 -14 174 1 215 4
211 -106 212 -63 1 -83 -2 -95 -15z"/>
<path d="M6655 6056 c-62 -28 -114 -93 -122 -153 -3 -21 -6 -39 -8 -41 -2 -2
1 -17 5 -33 9 -31 13 -29 -59 -33 -21 -1 -30 -13 -57 -76 -43 -100 -70 -160
-112 -250 -49 -108 -53 -120 -57 -170 -4 -56 17 -93 61 -109 28 -10 436 -15
1036 -11 18 0 40 12 62 35 32 32 35 38 31 85 -3 36 -32 114 -97 263 -50 117
-95 217 -99 222 -5 7 -64 11 -153 10 l-145 0 6 23 c3 12 2 47 -2 76 -5 44 -14
63 -47 101 -22 25 -55 52 -72 59 -42 17 -134 19 -171 2z m165 -58 c53 -36 74
-73 76 -129 4 -99 -64 -169 -161 -169 -118 0 -193 135 -134 240 43 76 150 104
219 58z m177 -357 c21 -2 61 -49 68 -80 27 -122 -152 -179 -198 -63 -29 72 25
154 97 146 11 -1 26 -3 33 -3z m-76 -270 c54 -44 13 -130 -56 -117 -55 11 -74
72 -35 114 25 27 60 28 91 3z"/>
<path d="M2465 4582 c-31 -5 -119 -34 -125 -41 -3 -3 -22 -19 -42 -34 -21 -15
-38 -33 -38 -39 0 -6 -8 -18 -19 -27 -18 -16 -35 -91 -34 -156 0 -45 14 -105
24 -105 5 0 9 -6 9 -14 0 -8 12 -24 26 -37 14 -13 40 -38 59 -56 18 -17 47
-34 64 -38 17 -4 31 -11 31 -16 0 -5 6 -9 14 -9 16 0 79 -31 84 -42 2 -3 23
-12 48 -19 24 -7 44 -17 44 -21 0 -4 5 -8 10 -8 18 0 59 -46 66 -74 8 -34 -31
-102 -65 -112 -64 -18 -80 -19 -126 -12 -61 10 -84 26 -161 107 l-52 54 -25
-25 c-14 -14 -27 -24 -30 -22 -2 2 -20 -11 -40 -29 -23 -22 -34 -40 -32 -53 2
-10 4 -22 4 -26 2 -11 73 -81 116 -113 54 -41 84 -57 94 -50 5 2 14 -2 21 -9
10 -13 58 -23 145 -30 26 -2 88 7 120 18 6 1 22 6 38 11 15 4 27 11 27 16 0 5
3 8 8 7 33 -7 98 55 140 133 37 68 29 231 -12 260 -5 4 -6 11 -3 16 4 6 -5 16
-18 23 -14 7 -25 19 -25 25 0 7 -17 20 -37 31 -21 10 -40 21 -43 24 -10 10
-45 30 -70 40 -41 17 -74 33 -100 51 -14 9 -36 19 -50 22 -32 8 -100 72 -100
94 0 34 12 63 26 63 8 0 14 4 14 9 0 16 56 32 96 28 59 -6 109 -31 149 -75 33
-38 38 -40 66 -30 16 5 29 14 29 19 0 5 7 9 15 9 8 0 15 5 15 10 0 6 13 18 28
28 35 20 34 40 -4 89 -34 44 -100 92 -161 115 -43 16 -170 28 -218 20z"/>
<path d="M7698 4583 c-10 -2 -18 -12 -19 -21 -1 -9 -2 -239 -2 -510 -2 -433 0
-495 13 -502 9 -5 51 -7 95 -5 102 4 99 4 92 12 -4 3 -2 12 5 20 7 9 11 98 11
292 l-1 279 59 -58 c33 -33 59 -62 59 -66 0 -4 14 -20 30 -36 17 -15 30 -32
30 -37 0 -5 7 -11 15 -14 8 -4 27 -25 42 -49 15 -24 36 -49 47 -57 27 -20 76
-73 76 -82 0 -4 28 -37 63 -73 65 -69 102 -112 116 -134 5 -8 23 -15 40 -16
66 -5 63 -31 63 522 0 275 -3 506 -7 512 -3 6 -44 10 -94 10 -76 0 -89 -2 -93
-17 -2 -10 -4 -149 -3 -309 0 -197 -3 -290 -10 -288 -6 3 -19 17 -30 31 -11
15 -42 53 -70 84 -80 89 -146 166 -169 195 -12 15 -47 53 -78 86 -32 33 -58
63 -58 67 0 5 -24 33 -53 62 -29 30 -60 64 -68 76 -16 23 -66 36 -101 26z"/>
<path d="M2953 4558 c-8 -11 -10 -66 -4 -159 1 -14 21 -16 154 -17 83 0 158
-1 165 -1 10 -1 13 -46 13 -203 0 -112 0 -212 0 -223 0 -11 0 -105 0 -209 -1
-110 3 -192 8 -196 8 -4 146 -6 187 -1 8 1 11 118 10 407 -1 223 2 411 6 417
4 6 61 10 157 10 l150 -1 5 27 c4 22 3 95 -3 149 -2 18 -834 18 -848 0z"/>
<path d="M3916 4562 c-7 -12 -6 -1012 2 -1013 4 -1 159 -2 345 -3 390 -1 357
-11 357 103 0 60 -7 80 -22 69 -2 -1 -13 4 -24 10 -12 6 -24 8 -28 5 -10 -10
-146 -10 -146 0 0 5 -6 5 -12 1 -17 -11 -108 -11 -108 -1 0 5 -6 5 -12 0 -7
-4 -35 -7 -63 -6 -27 1 -60 2 -72 2 -22 1 -23 3 -21 135 l1 134 174 -1 c108 0
178 4 184 10 9 9 14 86 10 156 -1 15 -17 17 -185 17 l-183 0 -1 100 -1 100 32
1 c18 0 125 1 240 1 170 0 207 3 207 14 0 8 5 14 10 14 6 0 10 31 10 74 0 58
-3 75 -16 80 -23 9 -672 7 -678 -2z"/>
<path d="M5808 4069 c-2 -368 0 -507 8 -514 8 -7 87 -10 220 -8 226 3 234 3
234 13 0 3 10 6 23 6 38 1 134 34 157 54 13 11 28 20 34 20 6 1 22 14 36 30
13 17 30 30 37 30 7 0 13 6 13 13 0 7 8 20 18 28 25 24 52 58 52 68 0 5 10 33
23 62 13 30 23 65 22 79 0 14 3 28 8 31 12 9 14 141 2 146 -6 2 -10 23 -10 46
1 23 -5 48 -13 56 -7 7 -11 20 -8 27 3 8 1 14 -4 14 -6 0 -10 7 -10 17 0 14
-66 111 -95 138 -43 42 -185 124 -185 108 0 -5 -4 -2 -9 6 -11 18 -34 19 -318
27 l-233 6 -2 -503z m382 307 c19 -3 35 -5 35 -6 0 -1 14 -3 30 -5 38 -4 59
-9 65 -15 3 -3 21 -17 40 -30 55 -37 90 -82 90 -115 0 -8 5 -15 10 -15 6 0 10
-11 10 -25 0 -14 3 -25 8 -25 9 0 7 -138 -3 -165 -4 -11 -13 -34 -21 -52 -8
-17 -14 -35 -14 -40 0 -18 -87 -91 -136 -114 -27 -13 -62 -23 -79 -24 -16 0
-35 -4 -41 -8 -6 -3 -47 -7 -90 -9 l-79 -2 -2 54 c-1 30 -2 60 -3 65 -2 13 -2
51 0 195 0 63 1 118 0 123 -2 8 -2 47 -1 146 1 57 4 70 18 73 19 3 111 0 163
-6z"/>
<path d="M6844 4559 c-11 -19 -8 -1000 4 -1008 8 -5 653 -7 685 -2 4 0 6 40 5
89 l-3 87 -47 0 c-27 0 -48 4 -48 8 0 5 -6 5 -12 1 -17 -11 -108 -11 -108 -1
0 5 -6 5 -12 1 -17 -11 -108 -11 -108 -1 0 5 -6 5 -12 1 -17 -11 -108 -11
-108 0 0 5 -7 3 -15 -4 -12 -10 -16 -9 -21 4 -3 9 -4 23 -1 31 4 8 2 17 -4 20
-5 4 -7 11 -3 16 6 10 9 131 4 154 -9 40 -7 41 176 42 97 0 180 5 185 10 6 6
9 45 7 89 l-3 79 -185 5 c-102 3 -181 7 -175 8 5 1 4 7 -2 13 -8 8 -8 20 -3
35 6 14 6 26 0 29 -6 3 -6 15 0 30 5 14 6 25 2 25 -4 0 -6 15 -4 33 l4 32 234
-2 c209 -1 235 1 242 15 6 14 7 84 3 155 -1 16 -24 17 -335 17 -235 0 -337 -3
-342 -11z"/>
</g>
</svg>
